<svg id="Layer_1" data-name="Layer 1" xmlns="http://www.w3.org/2000/svg" viewBox="0 0 174.97 174.97"><defs><style>.cls-1{fill:#0052be;}.cls-2{fill:#00337a;}.cls-3{fill:#fff16b;}.cls-4{fill:#f9f9f9;}.cls-5{fill:#bceaf9;}.cls-6{fill:#ff6b6b;}.cls-7{fill:#ffb454;}.cls-8{fill:#e2dff4;}.cls-9{fill:#8bb9ff;}.cls-10{fill:#ff1f3d;}</style></defs><circle class="cls-1" cx="87.48" cy="87.48" r="87.48"/><path class="cls-2" d="M90,2.52v175a87.48,87.48,0,0,0,0-175Z" transform="translate(-2.52 -2.52)"/><path class="cls-3" d="M131.86,54.12H63.52a5.13,5.13,0,1,1,0-10.25h68.34a5.13,5.13,0,1,1,0,10.25Z" transform="translate(-2.52 -2.52)"/><circle class="cls-3" cx="43.91" cy="46.48" r="5.13"/><path class="cls-4" d="M131.86,74.62H63.52a5.13,5.13,0,1,1,0-10.25h68.34a5.13,5.13,0,1,1,0,10.25Z" transform="translate(-2.52 -2.52)"/><circle class="cls-4" cx="43.91" cy="66.98" r="5.13"/><path class="cls-5" d="M131.86,95.13H63.52a5.13,5.13,0,0,1,0-10.26h68.34a5.13,5.13,0,0,1,0,10.26Z" transform="translate(-2.52 -2.52)"/><circle class="cls-5" cx="43.91" cy="87.48" r="5.13"/><path class="cls-4" d="M131.86,115.63H63.52a5.13,5.13,0,1,1,0-10.25h68.34a5.13,5.13,0,1,1,0,10.25Z" transform="translate(-2.52 -2.52)"/><circle class="cls-4" cx="43.91" cy="107.99" r="5.13"/><path class="cls-6" d="M131.86,136.13H63.52a5.13,5.13,0,1,1,0-10.25h68.34a5.13,5.13,0,1,1,0,10.25Z" transform="translate(-2.52 -2.52)"/><circle class="cls-6" cx="43.91" cy="128.49" r="5.13"/><path class="cls-7" d="M137,49a5.13,5.13,0,0,0-5.13-5.12H90V54.12h41.86A5.13,5.13,0,0,0,137,49Z" transform="translate(-2.52 -2.52)"/><path class="cls-8" d="M137,69.5a5.13,5.13,0,0,0-5.13-5.13H90V74.62h41.86A5.13,5.13,0,0,0,137,69.5Z" transform="translate(-2.52 -2.52)"/><path class="cls-9" d="M137,90a5.13,5.13,0,0,0-5.13-5.13H90V95.13h41.86A5.13,5.13,0,0,0,137,90Z" transform="translate(-2.52 -2.52)"/><path class="cls-8" d="M137,110.5a5.13,5.13,0,0,0-5.13-5.12H90v10.25h41.86A5.13,5.13,0,0,0,137,110.5Z" transform="translate(-2.52 -2.52)"/><path class="cls-10" d="M137,131a5.13,5.13,0,0,0-5.13-5.13H90v10.25h41.86A5.13,5.13,0,0,0,137,131Z" transform="translate(-2.52 -2.52)"/></svg>