<svg id="Layer_1" data-name="Layer 1" xmlns="http://www.w3.org/2000/svg" viewBox="0 0 106.78 177.97"><defs><style>.cls-1{fill:#00366d;}.cls-2{fill:#01223c;}.cls-3{fill:#5ff9fe;}.cls-4{fill:#00dde7;}.cls-5{fill:#00bdcd;}</style></defs><path class="cls-1" d="M127.62,1H52.38A15.79,15.79,0,0,0,36.61,16.78V163.22A15.79,15.79,0,0,0,52.38,179h75.24a15.79,15.79,0,0,0,15.77-15.77V16.78A15.79,15.79,0,0,0,127.62,1Z" transform="translate(-36.61 -1.01)"/><path class="cls-2" d="M143.39,163.22V16.78A15.79,15.79,0,0,0,127.62,1H90V179h37.62A15.79,15.79,0,0,0,143.39,163.22Z" transform="translate(-36.61 -1.01)"/><path class="cls-3" d="M127,11.44h-6v6a16.38,16.38,0,0,1-16.38,16.38H75.33A16.38,16.38,0,0,1,59,17.4v-6H53a6,6,0,0,0-6,6V162.6a6,6,0,0,0,6,6h74a6,6,0,0,0,6-6V17.4a6,6,0,0,0-6-6Z" transform="translate(-36.61 -1.01)"/><path class="cls-4" d="M133,162.6V17.4a6,6,0,0,0-6-6h-6v6a16.38,16.38,0,0,1-16.38,16.38H90V168.56h37A6,6,0,0,0,133,162.6Z" transform="translate(-36.61 -1.01)"/><path class="cls-4" d="M101.17,156.65H78.83a5.22,5.22,0,0,1,0-10.43h22.34a5.22,5.22,0,0,1,0,10.43Z" transform="translate(-36.61 -1.01)"/><path class="cls-5" d="M106.38,151.43a5.21,5.21,0,0,0-5.21-5.21H90v10.43h11.17A5.22,5.22,0,0,0,106.38,151.43Z" transform="translate(-36.61 -1.01)"/></svg>