<svg id="Layer_1" data-name="Layer 1" xmlns="http://www.w3.org/2000/svg" viewBox="0 0 170.97 170.96"><defs><style>.cls-1{fill:#4caf50;}.cls-2{fill:#2196f3;}.cls-3{fill:#ff9800;}.cls-4{fill:#eceff1;}.cls-5{fill:#1d83d4;}.cls-6{fill:#de8400;}.cls-7{fill:#cdd0d2;}.cls-8{fill:#90caf9;}.cls-9{fill:#7db0d9;}.cls-10{fill:#42a5f5;}.cls-11{fill:#64b5f6;}.cls-12{fill:#579ed6;}.cls-13{fill:#3990d5;}.cls-14{fill:#429846;}</style></defs><path class="cls-1" d="M10.62,147.56H9.71a5.35,5.35,0,0,1-5.19-5.49A5.3,5.3,0,0,1,10,136.88,186.4,186.4,0,0,0,72.46,125.4c43-16.05,70.44-45.76,81.61-88.33a5.34,5.34,0,1,1,10.33,2.72C136.84,144.84,22,147.56,10.62,147.56Z" transform="translate(-4.52 -4.52)"/><path class="cls-1" d="M170.14,62.2a5.38,5.38,0,0,1-1.38-.17l-29.2-7.83a5.34,5.34,0,0,1-1.28-9.78l18.51-10.69a5.34,5.34,0,0,1,7.29,2l10.69,18.51a5.34,5.34,0,0,1-4.63,8Z" transform="translate(-4.52 -4.52)"/><path class="cls-2" d="M72.87,106.05a5.3,5.3,0,0,1-3.79-1.58L52.6,87.92a5.34,5.34,0,0,1,.2-7.72l26.53-24a5.33,5.33,0,0,1,8.92,4.05C88,74.82,86.9,91.45,77.06,104a5.34,5.34,0,0,1-3.89,2Z" transform="translate(-4.52 -4.52)"/><path class="cls-2" d="M31.49,64.59A5.3,5.3,0,0,1,27.73,63L11.17,46.57a5.34,5.34,0,0,1,.48-8C24.2,28.74,40.83,27.64,55.44,27.39a5.65,5.65,0,0,1,5,3.13,5.33,5.33,0,0,1-.9,5.79l-24,26.53a5.31,5.31,0,0,1-3.82,1.75Z" transform="translate(-4.52 -4.52)"/><path class="cls-3" d="M9.86,113.15a5.34,5.34,0,0,1-5.11-6.87C6.66,99.87,11.59,84.49,16,80.14a15.26,15.26,0,1,1,21.58,21.58c-4.36,4.35-19.73,9.29-26.14,11.2Z" transform="translate(-4.52 -4.52)"/><path class="cls-4" d="M24.35,59.68,48,33.5c14.88-17.19,37.66-28.6,58-29a5.17,5.17,0,0,1,3.87,1.56A5.34,5.34,0,0,1,111.36,10C111,30.27,99.57,53,82.3,68L56.21,91.55Z" transform="translate(-4.52 -4.52)"/><path class="cls-5" d="M53.81,27.41c-14.2.32-30.07,1.69-42.16,11.17a5.3,5.3,0,0,0-2,3.89,5.37,5.37,0,0,0,1.56,4.1L24.66,60l-.31-.32L48,33.5C49.8,31.38,51.76,29.35,53.81,27.41Z" transform="translate(-4.52 -4.52)"/><path class="cls-6" d="M26.74,75.68A15.2,15.2,0,0,0,16,80.14c-4.36,4.35-9.29,19.73-11.2,26.14a5.33,5.33,0,0,0,.91,4.83L37.08,79.7a15.25,15.25,0,0,0-10.34-4Z" transform="translate(-4.52 -4.52)"/><path class="cls-7" d="M106.15,4.52h-.22c-17.8.33-37.5,9.14-52.12,22.88-2.05,1.94-4,4-5.85,6.09L24.35,59.68l.31.31L40.72,76.05l69.5-69.49a4.79,4.79,0,0,0-.43-.47,5.19,5.19,0,0,0-3.64-1.57Z" transform="translate(-4.52 -4.52)"/><path class="cls-8" d="M31.23,175.48a7.12,7.12,0,0,1-7.12-7.12V164.8a7.12,7.12,0,1,1,14.24,0v3.56A7.12,7.12,0,0,1,31.23,175.48Z" transform="translate(-4.52 -4.52)"/><path class="cls-9" d="M31.23,157.67a7.13,7.13,0,0,0-7.12,7.13v3.56a7.12,7.12,0,0,0,7.12,7.12Z" transform="translate(-4.52 -4.52)"/><path class="cls-2" d="M159.45,175.48a7.12,7.12,0,0,1-7.12-7.12V82.88a7.13,7.13,0,1,1,14.25,0v85.48A7.13,7.13,0,0,1,159.45,175.48Z" transform="translate(-4.52 -4.52)"/><path class="cls-10" d="M116.71,175.48a7.12,7.12,0,0,1-7.12-7.12V132.74a7.13,7.13,0,0,1,14.25,0v35.62A7.13,7.13,0,0,1,116.71,175.48Z" transform="translate(-4.52 -4.52)"/><path class="cls-11" d="M74,175.48a7.12,7.12,0,0,1-7.12-7.12V154.11a7.12,7.12,0,0,1,14.24,0v14.25A7.12,7.12,0,0,1,74,175.48Z" transform="translate(-4.52 -4.52)"/><path class="cls-12" d="M74,147a7.12,7.12,0,0,0-7.12,7.12v14.25A7.12,7.12,0,0,0,74,175.48Z" transform="translate(-4.52 -4.52)"/><path class="cls-13" d="M116.71,125.62a7.12,7.12,0,0,0-7.12,7.12v35.62a7.12,7.12,0,0,0,7.12,7.12Z" transform="translate(-4.52 -4.52)"/><path class="cls-5" d="M159.45,75.75a7.13,7.13,0,0,0-7.12,7.13v85.48a7.12,7.12,0,0,0,7.12,7.12Z" transform="translate(-4.52 -4.52)"/><path class="cls-14" d="M90,117.65a157.09,157.09,0,0,1-17.53,7.75,188,188,0,0,1-61.56,11.48H9.75a5.25,5.25,0,0,0-5.23,5.2,5.35,5.35,0,0,0,5.2,5.48h.9c6.19,0,42.79-.8,79.39-18.29V117.65Z" transform="translate(-4.52 -4.52)"/></svg>