<svg id="Layer_1" data-name="Layer 1" xmlns="http://www.w3.org/2000/svg" viewBox="0 0 175.71 154.43"><defs><style>.cls-1{fill:#0052be;}.cls-2{fill:#00337a;}.cls-3{fill:#2681ff;}.cls-4{fill:#bceaf9;}.cls-5{fill:#8bb9ff;}</style></defs><path class="cls-1" d="M172.71,160.35a5,5,0,0,1-2.27-.53l-41.87-20.59a5.14,5.14,0,0,1-2.88-4.62V107.16a5.16,5.16,0,0,1,2.88-4.62L170.44,82a5.14,5.14,0,0,1,7.41,4.62V155.2a5.14,5.14,0,0,1-5.14,5.15Z" transform="translate(-2.15 -12.78)"/><path class="cls-2" d="M125.69,120.89v13.72a5.14,5.14,0,0,0,2.88,4.62l41.87,20.59a5,5,0,0,0,2.27.53,5.14,5.14,0,0,0,5.14-5.15V120.89Z" transform="translate(-2.15 -12.78)"/><path class="cls-3" d="M117.11,167.22H21A18.89,18.89,0,0,1,2.15,148.34V93.43A18.88,18.88,0,0,1,21,74.56h96.09A18.89,18.89,0,0,1,136,93.43v54.91A18.9,18.9,0,0,1,117.11,167.22Z" transform="translate(-2.15 -12.78)"/><path class="cls-1" d="M2.15,120.89v27.45A18.89,18.89,0,0,0,21,167.22h96.09A18.9,18.9,0,0,0,136,148.34V120.89Z" transform="translate(-2.15 -12.78)"/><path class="cls-4" d="M112.82,131.18H75.07A5.15,5.15,0,0,1,69.92,126V100.3a5.15,5.15,0,0,1,5.15-5.15h37.75A5.15,5.15,0,0,1,118,100.3V126A5.15,5.15,0,0,1,112.82,131.18Z" transform="translate(-2.15 -12.78)"/><path class="cls-2" d="M49.33,146.63h-24a5.15,5.15,0,0,1,0-10.3h24a5.15,5.15,0,1,1,0,10.3Z" transform="translate(-2.15 -12.78)"/><path class="cls-1" d="M49.33,126h-24a5.15,5.15,0,1,1,0-10.29h24a5.15,5.15,0,1,1,0,10.29Z" transform="translate(-2.15 -12.78)"/><path class="cls-2" d="M25.31,126h24a5.14,5.14,0,0,0,5.15-5.14H20.16A5.15,5.15,0,0,0,25.31,126Z" transform="translate(-2.15 -12.78)"/><circle class="cls-3" cx="97.81" cy="36.03" r="30.89"/><path class="cls-1" d="M100,17.93V79.7a30.89,30.89,0,1,0,0-61.77Z" transform="translate(-2.15 -12.78)"/><path class="cls-1" d="M100,84.85a36,36,0,1,1,36-36A36.07,36.07,0,0,1,100,84.85Zm0-61.77a25.74,25.74,0,1,0,25.74,25.74A25.77,25.77,0,0,0,100,23.08Z" transform="translate(-2.15 -12.78)"/><circle class="cls-4" cx="97.81" cy="36.03" r="10.3"/><path class="cls-5" d="M100,38.52V59.11a10.3,10.3,0,1,0,0-20.59Z" transform="translate(-2.15 -12.78)"/><path class="cls-1" d="M100,64.26A15.45,15.45,0,1,1,115.4,48.82,15.46,15.46,0,0,1,100,64.26Zm0-20.59a5.15,5.15,0,1,0,5.15,5.15A5.16,5.16,0,0,0,100,43.67Z" transform="translate(-2.15 -12.78)"/><path class="cls-2" d="M100,33.37v10.3A5.15,5.15,0,0,1,100,54V64.26a15.45,15.45,0,1,0,0-30.89Z" transform="translate(-2.15 -12.78)"/><path class="cls-2" d="M100,12.78v10.3a25.74,25.74,0,0,1,0,51.48V84.85a36,36,0,1,0,0-72.07Z" transform="translate(-2.15 -12.78)"/><circle class="cls-3" cx="36.03" cy="36.03" r="30.89"/><path class="cls-1" d="M38.18,17.93V79.7a30.89,30.89,0,1,0,0-61.77Z" transform="translate(-2.15 -12.78)"/><path class="cls-1" d="M38.18,84.85a36,36,0,1,1,36-36A36.07,36.07,0,0,1,38.18,84.85Zm0-61.77A25.74,25.74,0,1,0,63.92,48.82,25.77,25.77,0,0,0,38.18,23.08Z" transform="translate(-2.15 -12.78)"/><circle class="cls-4" cx="36.03" cy="36.03" r="10.3"/><path class="cls-5" d="M38.18,38.52V59.11a10.3,10.3,0,0,0,0-20.59Z" transform="translate(-2.15 -12.78)"/><path class="cls-1" d="M38.18,64.26A15.45,15.45,0,1,1,53.62,48.82,15.46,15.46,0,0,1,38.18,64.26Zm0-20.59a5.15,5.15,0,1,0,5.15,5.15A5.16,5.16,0,0,0,38.18,43.67Z" transform="translate(-2.15 -12.78)"/><path class="cls-2" d="M38.18,33.37v10.3a5.15,5.15,0,0,1,0,10.3V64.26a15.45,15.45,0,0,0,0-30.89Z" transform="translate(-2.15 -12.78)"/><path class="cls-2" d="M38.18,12.78v10.3a25.74,25.74,0,0,1,0,51.48V84.85a36,36,0,0,0,0-72.07Z" transform="translate(-2.15 -12.78)"/><path class="cls-5" d="M69.92,120.89V126a5.15,5.15,0,0,0,5.15,5.15h37.75A5.15,5.15,0,0,0,118,126v-5.14Z" transform="translate(-2.15 -12.78)"/></svg>