<svg id="Layer_1" data-name="Layer 1" xmlns="http://www.w3.org/2000/svg" viewBox="0 0 151.69 172.97"><defs><style>.cls-1{fill:#8b8992;}.cls-2{fill:#57555c;}.cls-3{fill:#9bc9ff;}.cls-4{fill:#009ae5;}.cls-5{fill:#005ece;}.cls-6{fill:#b87fd9;}.cls-7{fill:#8034ad;}.cls-8{fill:#e3cef0;}.cls-9{fill:#d5b4e8;}.cls-10{fill:#e0e0e2;}.cls-11{fill:#acabb1;}.cls-12{fill:#ffe477;}.cls-13{fill:#ffa733;}.cls-14{fill:#ff9a00;}.cls-15{fill:#e67500;}.cls-16{fill:#003f8a;}</style></defs><path class="cls-1" d="M104.69,173.1H74.29v-29h30.4Zm-20.27-6.75H94.56V154.19H84.42v12.16Z" transform="translate(-14.16 -3.52)"/><polygon class="cls-2" points="75.84 150.67 80.4 150.67 80.4 162.83 75.84 162.83 75.84 169.59 90.54 169.59 90.54 140.53 75.84 140.53 75.84 150.67"/><path class="cls-3" d="M165.84,130.54H14.16V49.46H165.84Z" transform="translate(-14.16 -3.52)"/><rect class="cls-4" x="75.84" y="45.94" width="75.84" height="81.08"/><rect class="cls-5" x="50" y="162.83" width="50.67" height="10.13"/><path class="cls-6" d="M84.42,130.54H54V61.28h30.4Z" transform="translate(-14.16 -3.52)"/><path class="cls-7" d="M84.42,130.54H69.22V61.28h15.2Z" transform="translate(-14.16 -3.52)"/><path class="cls-1" d="M101.38,47.77H36.73L23.58,3.52H42.92a38.4,38.4,0,0,1,21.23,6.92V3.52h50.37Z" transform="translate(-14.16 -3.52)"/><polygon class="cls-2" points="100.37 0 54.9 0 54.9 44.26 87.22 44.26 100.37 0"/><path class="cls-8" d="M87.46,71.42H51a15.22,15.22,0,0,1-15.2-15.2V37.64h66.89V56.22A15.22,15.22,0,0,1,87.46,71.42Z" transform="translate(-14.16 -3.52)"/><path class="cls-9" d="M69.22,37.64V71.42H87.46a15.22,15.22,0,0,0,15.21-15.2V37.64Z" transform="translate(-14.16 -3.52)"/><path class="cls-10" d="M148,43.5a17.81,17.81,0,0,1-4.58-35l17.19-4.6,4.61,17.19a17.8,17.8,0,0,1-12.59,21.8A17.92,17.92,0,0,1,148,43.5Z" transform="translate(-14.16 -3.52)"/><path class="cls-11" d="M165.23,21.08,160.62,3.89h0L139.13,41.1h0A17.67,17.67,0,0,0,148,43.5a17.92,17.92,0,0,0,4.63-.62,17.8,17.8,0,0,0,12.59-21.8Z" transform="translate(-14.16 -3.52)"/><path class="cls-12" d="M98.42,142l-26.33-15.2,42.22-73.14,26.33,15.2Z" transform="translate(-14.16 -3.52)"/><rect class="cls-13" x="70.72" y="94.06" width="84.45" height="15.2" transform="translate(-45.73 145.13) rotate(-60)"/><path class="cls-14" d="M139.48,79.92l-34.13-19.7,29.41-33.34,18.88,10.9Z" transform="translate(-14.16 -3.52)"/><polygon class="cls-15" points="139.49 34.26 130.05 28.81 108.26 66.55 125.32 76.41 139.49 34.26"/><path class="cls-5" d="M165.84,154.19H14.16V120.4H165.84Z" transform="translate(-14.16 -3.52)"/><rect class="cls-16" x="75.84" y="116.89" width="75.84" height="33.78"/><rect class="cls-16" x="75.33" y="162.83" width="25.34" height="10.13"/></svg>