<svg id="Layer_1" data-name="Layer 1" xmlns="http://www.w3.org/2000/svg" viewBox="0 0 173.47 173.47"><defs><style>.cls-1{fill:#f4f2e6;}.cls-2{fill:#414042;}.cls-3{fill:#fff;}.cls-4{fill:#105c6e;}.cls-5{fill:#58595b;}</style></defs><path class="cls-1" d="M8.09,90A81.9,81.9,0,0,0,90,171.91V8.09A81.92,81.92,0,0,0,8.09,90Z" transform="translate(-3.27 -3.27)"/><path class="cls-2" d="M90,15.56V3.27a86.73,86.73,0,0,0,0,173.46V164.44A74.44,74.44,0,0,1,90,15.56Z" transform="translate(-3.27 -3.27)"/><path class="cls-3" d="M164.43,90A74.51,74.51,0,0,1,90,164.43V15.57A74.52,74.52,0,0,1,164.43,90Z" transform="translate(-3.27 -3.27)"/><path class="cls-4" d="M129,126.51a6.17,6.17,0,0,1-3.76-1.28L86.24,95a6.15,6.15,0,0,1-2.39-4.87V41a6.15,6.15,0,1,1,12.3,0V87.16l36.62,28.34a6.15,6.15,0,0,1-3.77,11Z" transform="translate(-3.27 -3.27)"/><path class="cls-5" d="M90,3.27V15.56a74.44,74.44,0,0,1,0,148.88v12.29A86.73,86.73,0,0,0,90,3.27Z" transform="translate(-3.27 -3.27)"/></svg>