<svg id="Layer_1" data-name="Layer 1" xmlns="http://www.w3.org/2000/svg" viewBox="0 0 173.77 131.09"><defs><style>.cls-1{fill:#00607f;}.cls-2{fill:#00465f;}.cls-3{fill:#7ba0b0;}.cls-4{fill:#002c3c;}.cls-5{fill:#a7d2d7;}.cls-6{fill:#fdf6c8;}</style></defs><path class="cls-1" d="M3.12,69.76v70.78a25.68,25.68,0,0,0,48.73,11.3l22.89-46.73Z" transform="translate(-3.12 -35.12)"/><path class="cls-1" d="M37.75,35.12,70.54,95.21h35.35l36.36-60.09Z" transform="translate(-3.12 -35.12)"/><path class="cls-2" d="M90,35.12V95.21h15.89l36.36-60.09Z" transform="translate(-3.12 -35.12)"/><path class="cls-2" d="M105.07,104.73l23.08,47.11a25.68,25.68,0,0,0,48.73-11.3V69.76Z" transform="translate(-3.12 -35.12)"/><path class="cls-3" d="M142.25,35.12a34.65,34.65,0,0,0-31.46,49.13l.27.58,10,12.28.51.38a34.33,34.33,0,0,0,20.73,6.9,34.64,34.64,0,0,0,0-69.27Z" transform="translate(-3.12 -35.12)"/><path class="cls-3" d="M3.12,13.79" transform="translate(-3.12 -35.12)"/><path class="cls-4" d="M141.21,64.25a5.15,5.15,0,1,0-5.15-5.15A5.2,5.2,0,0,0,141.21,64.25Z" transform="translate(-3.12 -35.12)"/><path class="cls-4" d="M3.12,13.79" transform="translate(-3.12 -35.12)"/><path class="cls-4" d="M141.21,88.15A5.15,5.15,0,1,0,136.06,83,5.2,5.2,0,0,0,141.21,88.15Z" transform="translate(-3.12 -35.12)"/><path class="cls-4" d="M3.12,13.79" transform="translate(-3.12 -35.12)"/><path class="cls-4" d="M128.9,76.14A5.15,5.15,0,1,0,123.76,71,5.21,5.21,0,0,0,128.9,76.14Z" transform="translate(-3.12 -35.12)"/><path class="cls-4" d="M3.12,13.79" transform="translate(-3.12 -35.12)"/><path class="cls-4" d="M153.51,76.14A5.15,5.15,0,1,0,148.36,71,5.21,5.21,0,0,0,153.51,76.14Z" transform="translate(-3.12 -35.12)"/><path class="cls-2" d="M82,54.54h16.1V64.83H82Z" transform="translate(-3.12 -35.12)"/><path class="cls-4" d="M90,54.54h8V64.83H90Z" transform="translate(-3.12 -35.12)"/><path class="cls-5" d="M37.75,35.12A34.64,34.64,0,1,0,58.44,97.53l.51-.38,10-12.31.27-.59A34.65,34.65,0,0,0,37.75,35.12Z" transform="translate(-3.12 -35.12)"/><circle class="cls-2" cx="64.96" cy="59.18" r="17.86"/><path class="cls-4" d="M111.92,76.44a17.87,17.87,0,1,0,17.87,17.87A17.89,17.89,0,0,0,111.92,76.44Z" transform="translate(-3.12 -35.12)"/><path class="cls-6" d="M37.75,56.62V82.89" transform="translate(-3.12 -35.12)"/><path class="cls-6" d="M50.88,69.76H24.61" transform="translate(-3.12 -35.12)"/><path class="cls-2" d="M50.88,64.61h-8v-8H32.6v8h-8V74.9h8v8H42.89v-8h8Z" transform="translate(-3.12 -35.12)"/></svg>