<svg id="Layer_1" data-name="Layer 1" xmlns="http://www.w3.org/2000/svg" viewBox="0 0 140.11 174.97"><defs><style>.cls-1{fill:#9ddff6;}.cls-2{fill:#6ba7ff;}.cls-3{fill:#f5f5ff;}.cls-4{fill:#e2e7fa;}.cls-5{fill:#ef5ca2;}.cls-6{fill:#ea1c81;}</style></defs><path class="cls-1" d="M90,177.48a5,5,0,0,1-1.54-.23A98.07,98.07,0,0,1,19.94,83.76V31.56a5.13,5.13,0,0,1,5.13-5.12A39.62,39.62,0,0,0,60.23,5.25a5.12,5.12,0,0,1,4.53-2.73h50.48a5.12,5.12,0,0,1,4.53,2.73A39.61,39.61,0,0,0,154.9,26.44a5.15,5.15,0,0,1,5.16,5.12v52.2a98.07,98.07,0,0,1-68.52,93.49,5,5,0,0,1-1.54.23Z" transform="translate(-19.94 -2.52)"/><path class="cls-2" d="M154.9,26.44A39.61,39.61,0,0,1,119.77,5.25a5.12,5.12,0,0,0-4.53-2.73H90v175a5,5,0,0,0,1.54-.23,98.07,98.07,0,0,0,68.52-93.49V31.56a5.15,5.15,0,0,0-5.16-5.12Z" transform="translate(-19.94 -2.52)"/><path class="cls-3" d="M90,155.68a5.18,5.18,0,0,1-2-.4A77.23,77.23,0,0,1,40.45,83.76v-35A5.12,5.12,0,0,1,44,43.93a59.86,59.86,0,0,0,27.71-19,5.14,5.14,0,0,1,4-1.88h28.7a5.14,5.14,0,0,1,4,1.88,59.86,59.86,0,0,0,27.71,19,5.12,5.12,0,0,1,3.52,4.87v35A77.23,77.23,0,0,1,92,155.28a5.18,5.18,0,0,1-2,.4Z" transform="translate(-19.94 -2.52)"/><path class="cls-4" d="M136,43.93a59.86,59.86,0,0,1-27.71-19,5.14,5.14,0,0,0-4-1.88H90V155.68a5.18,5.18,0,0,0,2-.4,77.23,77.23,0,0,0,47.58-71.52v-35A5.12,5.12,0,0,0,136,43.93Z" transform="translate(-19.94 -2.52)"/><path class="cls-5" d="M96.83,110.85H83.17A5.13,5.13,0,0,1,78,105.72V92.05H64.37a5.13,5.13,0,0,1-5.13-5.13V73.25a5.13,5.13,0,0,1,5.13-5.12H78V54.46a5.13,5.13,0,0,1,5.13-5.13H96.83A5.13,5.13,0,0,1,102,54.46V68.13h13.67a5.13,5.13,0,0,1,5.13,5.12V86.92a5.13,5.13,0,0,1-5.13,5.13H102v13.67A5.13,5.13,0,0,1,96.83,110.85ZM102,92.05v13.67a5.13,5.13,0,0,1-5.13,5.13H83.17A5.13,5.13,0,0,1,78,105.72V92.05M102,68.13h13.67a5.13,5.13,0,0,1,5.13,5.12V86.92a5.13,5.13,0,0,1-5.13,5.13H102M78,68.13V54.46a5.13,5.13,0,0,1,5.13-5.13H96.83A5.13,5.13,0,0,1,102,54.46V68.13M78,92.05H64.37a5.13,5.13,0,0,1-5.13-5.13V73.25a5.13,5.13,0,0,1,5.13-5.12H78" transform="translate(-19.94 -2.52)"/><path class="cls-6" d="M115.63,68.13H102V54.46a5.13,5.13,0,0,0-5.13-5.13H90v61.52h6.83a5.13,5.13,0,0,0,5.13-5.13V92.05h13.67a5.13,5.13,0,0,0,5.13-5.13V73.25A5.13,5.13,0,0,0,115.63,68.13Z" transform="translate(-19.94 -2.52)"/></svg>