<svg id="Layer_1" data-name="Layer 1" xmlns="http://www.w3.org/2000/svg" viewBox="0 0 154.47 174.97"><defs><style>.cls-1{fill:#0051be;}.cls-2{fill:#2681ff;}.cls-3{fill:#dceaec;}.cls-4{fill:#c0d9dd;}.cls-5{fill:#495959;}.cls-6{fill:#323c3c;}</style></defs><path class="cls-1" d="M12.77,10H167.23V177.48H12.77Z" transform="translate(-12.77 -2.52)"/><path class="cls-2" d="M90,10h77.23V177.48H90Z" transform="translate(-12.77 -2.52)"/><path class="cls-3" d="M33.44,30.54V157H90l11.62-69L90,30.54Z" transform="translate(-12.77 -2.52)"/><path class="cls-4" d="M90,30.54h56.56V157H90Z" transform="translate(-12.77 -2.52)"/><path class="cls-5" d="M54.12,84.53H69.84V94.78H54.12Z" transform="translate(-12.77 -2.52)"/><path class="cls-5" d="M54.12,64V74.28H90l3.08-5.13L90,64Z" transform="translate(-12.77 -2.52)"/><path class="cls-6" d="M90,64h8.2V74.28H90Z" transform="translate(-12.77 -2.52)"/><path class="cls-4" d="M85.22,101.28v20.44l-7.29-6.43H63.34v10.25H74.05l11.62,10.25H90L93.08,118,90,101.28Z" transform="translate(-12.77 -2.52)"/><path class="cls-3" d="M108.75,115.29l-13.5-14H90v34.51h5.47V116.27l8.92,9.27h14.66V115.29Z" transform="translate(-12.77 -2.52)"/><path class="cls-2" d="M53.43,2.52V37.71H90l5.81-18.45L90,2.52Z" transform="translate(-12.77 -2.52)"/><path class="cls-1" d="M90,2.52h36.57V37.71H90Z" transform="translate(-12.77 -2.52)"/></svg>