<?xml version="1.0" encoding="utf-8"?>
<!-- Generator: Adobe Illustrator 24.1.3, SVG Export Plug-In . SVG Version: 6.00 Build 0)  -->
<svg version="1.1" id="Layer_1" xmlns="http://www.w3.org/2000/svg" xmlns:xlink="http://www.w3.org/1999/xlink" x="0px" y="0px"
	 viewBox="0 0 180 180" style="enable-background:new 0 0 180 180;" xml:space="preserve">
<style type="text/css">
	.st0{fill:#9ABADB;}
	.st1{fill:#D1E8FF;}
	.st2{fill:#F5F5FF;}
	.st3{fill:#294B6E;}
	.st4{fill:#6283A3;}
</style>
<g>
	<polygon class="st0" points="168.34,20.95 90,20.95 83,143.75 168.34,136.75 	"/>
	<g>
		<polygon class="st1" points="11.66,20.95 11.66,136.75 90,143.75 90,20.95 		"/>
		<polygon class="st1" points="179.49,136.75 90,136.75 83,147.9 90,159.05 179.49,159.05 		"/>
	</g>
	<rect x="0.51" y="136.75" class="st2" width="89.49" height="22.3"/>
	<polygon class="st3" points="157.85,31.44 90,31.44 83,78.85 90,126.26 157.85,126.26 	"/>
	<rect x="22.15" y="31.44" class="st4" width="67.85" height="94.82"/>
	<polygon class="st2" points="63.02,106.63 35.24,78.85 63.02,51.07 70.44,58.48 50.07,78.85 70.44,99.22 	"/>
	<g>
		<polygon class="st1" points="116.98,106.63 109.56,99.22 129.93,78.85 109.56,58.48 116.98,51.07 144.76,78.85 		"/>
		
			<rect x="56.85" y="73.61" transform="matrix(0.1951 -0.9808 0.9808 0.1951 -4.9006 151.7399)" class="st1" width="66.29" height="10.49"/>
	</g>
</g>
</svg>
