<svg id="Layer_1" data-name="Layer 1" xmlns="http://www.w3.org/2000/svg" viewBox="0 0 166.37 174.47"><defs><style>.cls-1{fill:#0051be;}.cls-2{fill:#3389ff;}.cls-3{fill:#003f8a;}.cls-4{fill:#005ece;}.cls-5{fill:#e67500;}</style></defs><path class="cls-1" d="M87.13,145.82V27.17C66.62,30,50.74,38.82,43.28,58.59a57.57,57.57,0,0,0-2,33.1c.08.36.17.71.25,1.06a49.74,49.74,0,0,0,11,20.72c8.4,9.61,14.92,18.78,17.57,32.35Z" transform="translate(-6.84 -2.77)"/><path class="cls-2" d="M92.65,27.17V59.62c32.18,4.1,35.69,50,0,54.71v31.49h6.88l2.48-12s8.78-1.9,12.73-5.27l11,6.88,12.87-12.58-6.73-11.27s4.25-7.75,4.69-12.58l12.87-2.63V78.05l-12.29-2.78S133.9,64.6,132,62.84c4.1-6.44,7-11.26,7-11.26L125.13,38.41l-10.39,7s-8.34-4.53-13.17-4.82c-1.31-8.2-2.34-13.44-2.34-13.44Z" transform="translate(-6.84 -2.77)"/><rect class="cls-3" x="64.37" y="150.46" width="37.35" height="5.98"/><path class="cls-4" d="M72.49,166.14A16,16,0,0,0,84,176.93h0a2.27,2.27,0,0,1,2.27-2.27h6.84a2.28,2.28,0,0,1,2.28,2.27v.3h.15c6.92-2.18,11.35-5.66,12.06-11.09Z" transform="translate(-6.84 -2.77)"/><rect class="cls-5" x="81.58" width="4.23" height="20" rx="0.99"/><rect class="cls-5" x="53.71" y="11.33" width="4.23" height="20" rx="0.99" transform="translate(-10.32 25.94) rotate(-28)"/><rect class="cls-5" x="27.09" y="35.19" width="4.23" height="20" rx="0.99" transform="translate(-31.43 41.37) rotate(-56)"/><rect class="cls-5" x="14.79" y="68.75" width="4.23" height="20" rx="0.99" transform="translate(-70.02 84.57) rotate(-84)"/><rect class="cls-5" x="161.03" y="63.99" width="4.23" height="20" rx="0.99" transform="translate(200.84 -102.3) rotate(80)"/><rect class="cls-5" x="146.57" y="31.3" width="4.23" height="20" rx="0.99" transform="translate(82.85 -104.06) rotate(52)"/><rect class="cls-5" x="118.45" y="9.22" width="4.23" height="20" rx="0.99" transform="translate(11.4 -50.14) rotate(24)"/></svg>