<svg id="Layer_1" data-name="Layer 1" xmlns="http://www.w3.org/2000/svg" viewBox="0 0 171.92 171.92"><defs><style>.cls-1{fill:#466175;}.cls-2{fill:#2d4859;}.cls-3{fill:#57bbff;}.cls-4{fill:#55d7ff;}.cls-5{fill:none;}</style></defs><path class="cls-1" d="M86.05,79.39v-21H17.81v87.3H4v15.11A15.13,15.13,0,0,0,19.15,176h66.9V165.89H19.15a5,5,0,0,1-5-5v-5H86.05V135.67H63.14a26.87,26.87,0,0,1,22.91-26.58v-4.45a10.06,10.06,0,0,1-6.12-9.27V88.66A10.06,10.06,0,0,1,86.05,79.39Z" transform="translate(-4.04 -4.04)"/><path class="cls-2" d="M176,145.74v15.11A15.13,15.13,0,0,1,160.85,176H86.05V165.89h74.8a5,5,0,0,0,5-5v-5H86.05V135.67h30.81a26.87,26.87,0,0,0-30.81-26.58v-4.45a10.06,10.06,0,0,0,14-9.27V88.66a10.06,10.06,0,0,0-14-9.27v-21h26.19a36.88,36.88,0,0,0,7.35,5.24A85.34,85.34,0,0,1,108.8,75.91a85,85,0,0,0,28.41-7.44c.6,0,1.21,0,1.81,0a40.19,40.19,0,0,0,23.17-7.15v84.38Z" transform="translate(-4.04 -4.04)"/><path class="cls-3" d="M176,36.28c0,10.12-5.38,19.17-13.77,25.08V58.44H137.82V4.06L139,4C159.39,4,176,18.5,176,36.28Z" transform="translate(-4.04 -4.04)"/><path class="cls-4" d="M137.82,4.06V58.44H112.24a30.07,30.07,0,0,1-10.15-22.16C102.09,18.86,118,4.62,137.82,4.06Z" transform="translate(-4.04 -4.04)"/><line class="cls-5" x1="82.01" y1="100.6" x2="82.01" y2="75.35"/><line class="cls-5" x1="82.01" y1="131.62" x2="82.01" y2="105.05"/><line class="cls-5" x1="82.01" y1="161.84" x2="82.01" y2="151.77"/></svg>