<svg id="Layer_1" data-name="Layer 1" xmlns="http://www.w3.org/2000/svg" viewBox="0 0 116.76 175.97"><defs><style>.cls-1{fill:#2fc0f0;}.cls-2{fill:#9ee2f8;}.cls-3{fill:#ff9f22;}.cls-4{fill:#ffda44;}.cls-5{fill:#fd5;}.cls-6{fill:#fff68e;}</style></defs><path class="cls-1" d="M131.52,84.75V178H120.66L90.08,145.71l-.08.08v-61Z" transform="translate(-31.62 -2.01)"/><path class="cls-2" d="M90,84.75v61L59.6,178h-11V84.75Z" transform="translate(-31.62 -2.01)"/><path class="cls-3" d="M137.59,69.69l3.75,21.25-20.28,7.38L110.28,117l-20.2-7.35V2.08l16.45,13.8h21.58l3.74,21.25L148.38,51Z" transform="translate(-31.62 -2.01)"/><path class="cls-4" d="M90.08,2.08V109.65l-.08,0L69.72,117,58.94,98.32,38.66,90.94l3.75-21.25L31.62,51,48.15,37.13l3.74-21.25H73.47L90,2Z" transform="translate(-31.62 -2.01)"/><path class="cls-5" d="M112.1,53.5,90.08,70V57.07l15.81-11.86Z" transform="translate(-31.62 -2.01)"/><path class="cls-6" d="M90.08,57.07V70l-9.49,7.12L67.08,61.36l7.86-6.75L82.14,63Z" transform="translate(-31.62 -2.01)"/></svg>